<svg viewBox="0 0 105.81022 42.01807" xmlns="http://www.w3.org/2000/svg"><g fill="#fff" transform="translate(0 -.99097)"><path d="m55.14355 32.02772h13.85911v-3.497h-9.97284l1.45734-1.08923 8.5155-11.98149v-3.497h-13.85911v3.497h9.94426l-1.48592 1.20389-8.45834 11.86683zm18.32917.02866q.37091.05733 1.11445.10032.74295.043 1.55736.086c.54293.02867 1.4637.05255 1.96853.07166q.75666.02808 1.21446.02867a11.71085 11.71085 0 0 0 4.84354-.88858 8.59835 8.59835 0 0 0 3.15758-2.35045 8.8967 8.8967 0 0 0 1.71453-3.35368 14.8988 14.8988 0 0 0 .51436-3.92695 14.62941 14.62941 0 0 0 -.54293-4.09894 8.40257 8.40257 0 0 0 -1.71453-3.21035 7.73534 7.73534 0 0 0 -3.05757-2.09247 12.36927 12.36927 0 0 0 -4.5435-.74526q-.60009 0-1.35733.01433c-.50484.01-1.42124.02429-1.95425.043q-.80012.02867-1.55736.086-.75724.05793-1.35734.14332zm9.2267-16.28109a4.76433 4.76433 0 0 1 1.67167 1.54785 5.94316 5.94316 0 0 1 .843 2.13546 12.50708 12.50708 0 0 1 .2286 2.36477 13.23236 13.23236 0 0 1 -.25718 2.62275 6.29944 6.29944 0 0 1 -.90013 2.25011 4.68952 4.68952 0 0 1 -1.7431 1.56218 5.80949 5.80949 0 0 1 -2.75753.58761c-.09565 0-.23853-.00438-.42864-.01433-.1905-.00955-.39053-.01871-.60008-.02866-.21-.00956-.40482-.01871-.5858-.02867-.18137-.00955-.70684-.02388-.78264-.043v-13.44336c.20954-.03822.92552-.06688 1.35415-.086q.643-.02806 1.27161-.02866a5.3768 5.3768 0 0 1 2.68609.60194zm23.1108 12.75543h-8.74409v-16.56772h-3.91484v20.06472h12.65893z" fill-rule="evenodd"/><path d="m47.62061 43.009h-47.62061l23.81006-42.018zm-44.00293-1.332h40.41162l-20.21924-11.89355zm19.52587-36.80566-20.20703 35.65918 20.207-11.90137zm4.05323 25.35742 17.47412 10.27832-4.65869-8.2207zm-1.45264-1.583 13.42627 2.15524-4.27295-7.54zm4.23-14.07324-4.87256 12.9043 9.13867-5.376zm-5.49758-9.70167v20.48779l4.64258-12.29492z"/></g></svg>